<svg width="32" height="32" viewBox="0 0 32 32" fill="none" xmlns="http://www.w3.org/2000/svg">
  <rect width="32" height="32" rx="6" fill="#0F172A"/>
  <defs>
    <linearGradient id="gradient" x1="0" y1="0" x2="32" y2="32">
      <stop offset="0%" stop-color="#8B5CF6"/>
      <stop offset="100%" stop-color="#EC4899"/>
    </linearGradient>
  </defs>
  <path d="M12 8C10 8 10 10 10 12V13C10 14.5 9 15 8 16C9 17 10 17.5 10 19V20C10 22 10 24 12 24" 
    stroke="url(#gradient)" 
    stroke-width="2" 
    stroke-linecap="round"/>
  <path d="M20 8C22 8 22 10 22 12V13C22 14.5 23 15 24 16C23 17 22 17.5 22 19V20C22 22 22 24 20 24" 
    stroke="url(#gradient)" 
    stroke-width="2" 
    stroke-linecap="round"/>
</svg>